<?xml version="1.0" encoding="utf-8"?>
<!-- Generator: Adobe Illustrator 21.0.2, SVG Export Plug-In . SVG Version: 6.00 Build 0)  -->
<svg version="1.1" id="Layer_1" xmlns="http://www.w3.org/2000/svg" xmlns:xlink="http://www.w3.org/1999/xlink" x="0px" y="0px"
	 viewBox="0 0 315.6 160.8" style="enable-background:new 0 0 315.6 160.8;" xml:space="preserve">
<style type="text/css">
	.st0{fill:#C6972C;}
	.st1{fill:#002D72;}
	.st2{fill:#0C84AC;}
	.st3{fill:#231F20;}
</style>
<path id="_x38_" d="M311.2,151.9c-2.5,0-4.4,2-4.5,4.5c0,2.5,2,4.5,4.5,4.5c2.5,0,4.5-2,4.5-4.5
	C315.6,153.9,313.6,151.9,311.2,151.9z M311.2,160c-2.1,0-3.7-1.7-3.7-3.7c0-2.1,1.7-3.7,3.7-3.7c2.1,0,3.7,1.7,3.7,3.7
	C314.9,158.4,313.2,160,311.2,160z M312.4,156.9c-0.1-0.1-0.3-0.3-0.5-0.4c0.4-0.1,0.7-0.2,0.9-0.4c0.2-0.2,0.3-0.5,0.3-0.9
	c0-0.3-0.1-0.5-0.2-0.7c-0.1-0.2-0.3-0.4-0.5-0.4c-0.2-0.1-0.6-0.1-1.1-0.1h-2v4.6h0.9v-1.9h0.2c0.2,0,0.4,0,0.5,0.1
	c0.1,0,0.2,0.1,0.3,0.2c0.1,0.1,0.3,0.3,0.5,0.7l0.7,1h1.1l-0.6-0.9C312.7,157.2,312.5,157,312.4,156.9z M311,155.8h-0.7v-1.2h0.7
	c0.4,0,0.6,0,0.7,0c0.2,0,0.3,0.1,0.4,0.2c0.1,0.1,0.1,0.2,0.1,0.4c0,0.1,0,0.3-0.1,0.3c-0.1,0.1-0.2,0.2-0.3,0.2
	C311.7,155.8,311.4,155.8,311,155.8z"/>
<path class="st0" d="M116.8,77.6c2.6-2.6,42.1-42,42.1-42h29.8L144.2,80c-3.9,3.9-9.2,6.1-14.7,6.1c0,0-26.5,0-42,0
	C107.4,84.9,114.2,80.2,116.8,77.6z"/>
<path class="st1" d="M91.8,86.2H70.7l50.6-50.6h29.8L106.6,80C102.7,83.9,97.4,86.2,91.8,86.2z"/>
<path class="st2" d="M154.4,77.6c2.6-2.6,42.1-42,42.1-42h29.8L181.8,80c-3.9,3.9-9.2,6.1-14.7,6.1c0,0-26.5,0-42,0
	C145,84.9,151.8,80.2,154.4,77.6z"/>
<path class="st1" d="M165.1,93.8C96.5,97,40.5,72.7,46.7,48.4C52.7,25,99.7,3,165.1,3c37.8,0,77,6.8,103.3,17.4
	C242.7,8.1,201.9,0,155.9,0C78.3,0,17.9,23,15.4,51c-2.7,30.1,62.9,51,140.5,51c60,0,123.7-14.1,139.3-39.1
	C267.1,86.1,220.3,91.2,165.1,93.8z"/>
<g>
	<path class="st3" d="M39.2,143.6c0,5.3-1,8.5-3.1,9.8c-2,1.2-7.4,1.8-16.1,1.8c-8.9,0-14.3-0.8-16.2-2.5C2,151,1,146.2,1,138.3
		c0-7.9,1.1-12.8,3.2-14.5c2.1-1.7,8-2.6,17.8-2.6c7.7,0,12.5,0.6,14.3,1.8c1.8,1.2,2.7,4.2,2.7,9.2h-4.2c0-3.3-0.8-5.3-2.3-6.1
		c-1.6-0.8-5.7-1.1-12.4-1.1c-7.1,0-11.4,0.6-12.8,1.9c-1.4,1.2-2.1,5.1-2.1,11.5c0,6.4,0.7,10.2,2.1,11.4c1.4,1.2,5.7,1.9,12.8,1.9
		c6.7,0,10.9-0.4,12.5-1.3c1.6-0.8,2.4-3.1,2.4-6.7H39.2z"/>
	<path class="st3" d="M60.8,130.5L60.8,130.5l9.2,15.6H51.6L60.8,130.5z M42.7,154.9h1.9h1.9l3.5-6h21.5l3.5,6h1.9h1.9l-15.8-27
		h-2.2h-2.3L42.7,154.9z"/>
	<path class="st3" d="M108.1,135.4c0-2.2-0.6-3.6-1.9-4.1c-1.3-0.5-4.5-0.8-9.9-0.8c-4.9,0-8,0.3-9.5,0.9c-1.5,0.6-2.2,1.9-2.2,3.8
		c0,1.9,0.8,3.1,2.3,3.6c1.5,0.6,4.7,0.8,9.6,0.7c6.4-0.1,10.5,0.3,12.5,1.3c1.9,1,2.9,3,2.9,6.2c0,3.3-1,5.5-2.9,6.5
		c-1.9,1-6.1,1.5-12.5,1.5c-6.5,0-10.6-0.5-12.5-1.7c-1.9-1.1-2.8-3.5-2.8-7.2h3.2c0,2.7,0.6,4.4,1.9,5c1.3,0.6,4.7,1,10.2,1
		c5,0,8.3-0.3,9.9-1c1.5-0.6,2.3-2,2.3-4c0-2-0.8-3.2-2.3-3.8c-1.6-0.6-4.8-0.8-9.8-0.8c-6.2,0.1-10.3-0.3-12.2-1.2
		c-1.9-0.9-2.9-2.9-2.9-6c0-3.2,0.9-5.3,2.8-6.3c1.9-1,5.9-1.5,12.1-1.5c6.3,0,10.3,0.5,12.2,1.5c1.8,1,2.8,3.1,2.8,6.4H108.1z"/>
	<path class="st3" d="M116.5,154.9v-27h27.1v1.5v1.5h-23.7v8.8h22.3v1.4v1.4h-22.3v9.6h23.7v1.5v1.5H116.5z"/>
	<path class="st3" d="M160,154.9l-13.4-33.2h2.2h2.2l12.3,29.9l0,0l11.5-29.9h2.7h2.7l11.7,30.1h0l12.2-30.1h2.1h2.2l-13.5,33.2h-3
		h-3.1l-11.3-29h0l-11,29h-3.2H160z"/>
	<path class="st3" d="M220,130.5L220,130.5l9.2,15.6h-18.3L220,130.5z M202,154.9h1.9h1.9l3.5-6h21.5l3.5,6h1.9h1.9l-15.8-27h-2.3
		h-2.3L202,154.9z"/>
	<path class="st3" d="M245,130.8h16.9c3.1,0,5.1,0.3,6,0.9c0.9,0.6,1.3,2,1.3,4.3c0,2.2-0.4,3.6-1.3,4.2c-0.9,0.6-3,0.9-6.2,0.9H245
		V130.8z M241.6,154.9h1.7h1.7v-10.6h18.5c2.3,0,3.7,0.4,4.4,1.3c0.7,0.8,1,2.7,1,5.6v3.7h1.7h1.7v-3.7c0-3.7-0.6-6-1.8-7.1
		c-0.6-0.6-1.6-1-3-1.2c1.3-0.3,2.3-0.6,2.9-1.1c1.4-1,2.1-3.1,2.1-6.2c0-3.1-0.7-5.2-2.1-6.2c-1.4-1-4.3-1.5-8.6-1.5h-18.6h-1.7
		V154.9z"/>
	<path class="st3" d="M277.5,154.9v-27h27.1v1.5v1.5h-23.7v8.8h22.3v1.4v1.4h-22.3v9.6h23.7v1.5v1.5H277.5z"/>
</g>
</svg>
